<mxfile host="65bd71144e">
    <diagram id="pbYKTGtJLj7VdWI4o0ZS" name="Page-1">
        <mxGraphModel dx="894" dy="862" grid="1" gridSize="8" guides="1" tooltips="1" connect="1" arrows="1" fold="1" page="1" pageScale="1" pageWidth="1169" pageHeight="827" background="#ffffff" math="0" shadow="0">
            <root>
                <MiscDiagram modelType="MiscDiagram" lastModifiedUserId="dbush@ibm.com" description="" lastModified="2022-01-26T00:36:39Z" _id="miscdiagram_SJtZjVj4t" label="Process Mining on OCP" id="0">
                    <mxCell/>
                </MiscDiagram>
                <mxCell id="1" parent="0"/>
                <mxCell id="miscdiagram_SJtZjVj4t_23dyT2PJBjnt" value="" style="rounded=0;whiteSpace=wrap;html=1;" parent="1" vertex="1">
                    <mxGeometry x="48" y="690" width="856" height="184" as="geometry"/>
                </mxCell>
                <UserObject placeholders="1" label="" Icon-Name="file-storage--alt" id="miscdiagram_SJtZjVj4t_33dyT2PJak3M">
                    <mxCell style="shape=mxgraph.ibm2mondrian.base;shapeType=ln;shapeLayout=collapsed;colorFamily=cyan;colorBackground=noColor:noColor;html=1;whiteSpace=wrap;metaEdit=1;strokeWidth=1;collapsible=0;recursiveResize=0;expand=0;fontFamily=IBM Plex Sans;fontColor=#000000;fontSize=14;image=;verticalAlign=top;align=center;spacing=0;spacingLeft=0;spacingRight=0;spacingTop=0;spacingBottom=0;verticalLabelPosition=bottom;labelPosition=center;positionText=bottom;container=1" parent="1" vertex="1">
                        <mxGeometry x="56" y="698" width="48" height="48" as="geometry"/>
                    </mxCell>
                </UserObject>
                <UserObject placeholders="1" label="Image Entitlement Key" Icon-Name="policy" id="miscdiagram_SJtZjVj4t_43dyT2PJHxK9">
                    <mxCell style="shape=mxgraph.ibm2mondrian.base;shapeType=ln;shapeLayout=collapsed;colorFamily=red;colorBackground=noColor:noColor;html=1;whiteSpace=wrap;metaEdit=1;strokeWidth=1;collapsible=0;recursiveResize=0;expand=0;fontFamily=IBM Plex Sans;fontColor=#000000;fontSize=14;image=;verticalAlign=top;align=center;spacing=0;spacingLeft=0;spacingRight=0;spacingTop=0;spacingBottom=0;verticalLabelPosition=bottom;labelPosition=center;positionText=bottom;container=1" parent="1" vertex="1">
                        <mxGeometry x="976" y="616" width="48" height="48" as="geometry"/>
                    </mxCell>
                </UserObject>
                <mxCell id="miscdiagram_SJtZjVj4t_53dyT2PJTvfi" style="edgeStyle=orthogonalEdgeStyle;rounded=1;html=1;jumpStyle=arc;jumpSize=8;entryX=1.004;entryY=0.913;entryPerimeter=0;endArrow=none;endFill=0;jettySize=auto;orthogonalLoop=1;" parent="1" source="miscdiagram_SJtZjVj4t_43dyT2PJHxK9" target="miscdiagram_SJtZjVj4t_173dyT2PJOan1" edge="1">
                    <mxGeometry relative="1" as="geometry">
                        <Array as="points">
                            <mxPoint x="928" y="638"/>
                            <mxPoint x="928" y="594"/>
                        </Array>
                    </mxGeometry>
                </mxCell>
                <UserObject placeholders="1" label="PV &lt;span&gt;processmining-repository&lt;/span&gt;" Icon-Name="kubernetes" id="miscdiagram_SJtZjVj4t_63dyT2PJsY1q">
                    <mxCell style="shape=mxgraph.ibm2mondrian.base;shapeType=pg;shapeLayout=expanded;colorFamily=blue;colorBackground=noColor:noColor;html=1;whiteSpace=wrap;metaEdit=1;strokeWidth=1;collapsible=0;recursiveResize=0;expand=0;fontFamily=IBM Plex Sans;fontColor=#000000;fontSize=14;image=;verticalAlign=middle;align=left;spacing=0;spacingLeft=12;spacingRight=16;spacingTop=0;spacingBottom=0;container=1" parent="1" vertex="1">
                        <mxGeometry x="68" y="762" width="192" height="88" as="geometry"/>
                    </mxCell>
                </UserObject>
                <UserObject placeholders="1" label="PV &lt;span&gt;processmining-mongo&lt;/span&gt;" Icon-Name="kubernetes" _id="userobject_34RKFuzGZ2L" id="miscdiagram_SJtZjVj4t_73dyT2PJ6lEn">
                    <mxCell style="shape=mxgraph.ibm2mondrian.base;shapeType=pg;shapeLayout=expanded;colorFamily=blue;colorBackground=noColor:noColor;html=1;whiteSpace=wrap;metaEdit=1;strokeWidth=1;collapsible=0;recursiveResize=0;expand=0;fontFamily=IBM Plex Sans;fontColor=#000000;fontSize=14;image=;verticalAlign=middle;align=left;spacing=0;spacingLeft=12;spacingRight=16;spacingTop=0;spacingBottom=0;container=1" parent="1" vertex="1">
                        <mxGeometry x="276" y="762" width="192" height="88" as="geometry"/>
                    </mxCell>
                </UserObject>
                <UserObject placeholders="1" label="PV &lt;span&gt;taskmining-data&lt;/span&gt;" Icon-Name="kubernetes" _id="userobject_34RKP6IKQO2" id="miscdiagram_SJtZjVj4t_83dyT2PJSeRr">
                    <mxCell style="shape=mxgraph.ibm2mondrian.base;shapeType=pg;shapeLayout=expanded;colorFamily=blue;colorBackground=noColor:noColor;html=1;whiteSpace=wrap;metaEdit=1;strokeWidth=1;collapsible=0;recursiveResize=0;expand=0;fontFamily=IBM Plex Sans;fontColor=#000000;fontSize=14;image=;verticalAlign=middle;align=left;spacing=0;spacingLeft=12;spacingRight=16;spacingTop=0;spacingBottom=0;container=1" parent="1" vertex="1">
                        <mxGeometry x="484" y="762" width="192" height="88" as="geometry"/>
                    </mxCell>
                </UserObject>
                <UserObject placeholders="1" label="PV DB2" Icon-Name="kubernetes" _id="userobject_34RL1Zi1ryd" id="miscdiagram_SJtZjVj4t_93dyT2PJAREV">
                    <mxCell style="shape=mxgraph.ibm2mondrian.base;shapeType=pg;shapeLayout=expanded;colorFamily=blue;colorBackground=noColor:noColor;html=1;whiteSpace=wrap;metaEdit=1;strokeWidth=1;collapsible=0;recursiveResize=0;expand=0;fontFamily=IBM Plex Sans;fontColor=#000000;fontSize=14;image=;verticalAlign=middle;align=left;spacing=0;spacingLeft=12;spacingRight=16;spacingTop=0;spacingBottom=0;container=1" parent="1" vertex="1">
                        <mxGeometry x="692" y="762" width="192" height="88" as="geometry"/>
                    </mxCell>
                </UserObject>
                <mxCell id="miscdiagram_SJtZjVj4t_103dyT2PJ9dFB" value="&lt;div style=&quot;text-align: left&quot;&gt;&lt;span&gt;200 GB RWX File Storage&lt;/span&gt;&lt;/div&gt;" style="text;html=1;strokeColor=none;fillColor=none;align=left;verticalAlign=middle;whiteSpace=wrap;rounded=0;" parent="1" vertex="1">
                    <mxGeometry x="124" y="712" width="228" height="20" as="geometry"/>
                </mxCell>
                <UserObject placeholders="1" label="Azure" Icon-Name="data--center" id="miscdiagram_SJtZjVj4t_113dyT2PJBE30">
                    <mxCell style="shape=mxgraph.ibm2mondrian.base;shapeType=pg;shapeLayout=expanded;colorFamily=blue;colorBackground=noColor:noColor;html=1;whiteSpace=wrap;metaEdit=1;strokeWidth=1;collapsible=0;recursiveResize=0;expand=0;fontFamily=IBM Plex Sans;fontColor=#000000;fontSize=14;image=;verticalAlign=top;align=left;spacing=0;spacingLeft=12;spacingRight=16;spacingTop=0;spacingBottom=0;container=1" parent="1" vertex="1">
                        <mxGeometry x="912" y="48" width="240" height="184" as="geometry"/>
                    </mxCell>
                </UserObject>
                <UserObject placeholders="1" label="Machine Learning Platform" Icon-Name="cube" _id="userobject_34RPL1s2zyv" id="miscdiagram_SJtZjVj4t_123dyT2PJOxZZ">
                    <mxCell style="shape=mxgraph.ibm2mondrian.base;shapeType=lg;shapeLayout=expanded;colorFamily=green;colorBackground=noColor:noColor;html=1;whiteSpace=wrap;metaEdit=1;strokeWidth=1;collapsible=0;recursiveResize=0;expand=0;fontFamily=IBM Plex Sans;fontColor=#000000;fontSize=14;image=;verticalAlign=middle;align=left;spacing=0;spacingLeft=12;spacingRight=16;spacingTop=0;spacingBottom=0;container=1" parent="miscdiagram_SJtZjVj4t_113dyT2PJBE30" vertex="1">
                        <mxGeometry x="47" y="68" width="152" height="68" as="geometry"/>
                    </mxCell>
                </UserObject>
                <mxCell id="miscdiagram_SJtZjVj4t_133dyT2PJ1ebr" value="" style="rounded=0;whiteSpace=wrap;html=1;" parent="1" vertex="1">
                    <mxGeometry x="912" y="244" width="240" height="180" as="geometry"/>
                </mxCell>
                <mxCell id="miscdiagram_SJtZjVj4t_143dyT2PJfJsY" value="&lt;div style=&quot;text-align: left&quot;&gt;&lt;span&gt;Windows 10&lt;/span&gt;&lt;/div&gt;" style="text;html=1;strokeColor=none;fillColor=none;align=left;verticalAlign=middle;whiteSpace=wrap;rounded=0;" parent="1" vertex="1">
                    <mxGeometry x="944" y="256" width="136" height="20" as="geometry"/>
                </mxCell>
                <UserObject placeholders="1" label="Task Mining Client" Icon-Name="cube" _id="userobject_34RXVEZVEE3" id="miscdiagram_SJtZjVj4t_153dyT2PJ6x2X">
                    <mxCell style="shape=mxgraph.ibm2mondrian.base;shapeType=lg;shapeLayout=expanded;colorFamily=green;colorBackground=noColor:noColor;html=1;whiteSpace=wrap;metaEdit=1;strokeWidth=1;collapsible=0;recursiveResize=0;expand=0;fontFamily=IBM Plex Sans;fontColor=#000000;fontSize=14;image=;verticalAlign=middle;align=left;spacing=0;spacingLeft=12;spacingRight=16;spacingTop=0;spacingBottom=0;container=1" parent="1" vertex="1">
                        <mxGeometry x="972" y="300" width="152" height="68" as="geometry"/>
                    </mxCell>
                </UserObject>
                <UserObject placeholders="1" label="&lt;span style=&quot;font-family: &amp;#34;ibm plex sans&amp;#34;&quot;&gt;OpenShift 4.6.12+ Cluster&lt;/span&gt;" Icon-Name="logo--openshift" id="miscdiagram_SJtZjVj4t_163dyT2PJJx1B">
                    <mxCell style="shape=mxgraph.ibm2mondrian.base;shapeType=pg;shapeLayout=expanded;colorFamily=green;colorBackground=noColor:noColor;strokeWidth=1;html=1;whiteSpace=wrap;metaEdit=1;collapsible=0;recursiveResize=0;expand=0;fontFamily=IBM Plex Sans SmBld;fontColor=#000000;fontSize=14;image=;verticalAlign=top;align=left;spacing=0;spacingLeft=16;spacingRight=16;spacingTop=0;spacingBottom=0;container=1" parent="1" vertex="1">
                        <mxGeometry x="32" y="48" width="856" height="600" as="geometry"/>
                    </mxCell>
                </UserObject>
                <UserObject placeholders="1" label="Namespace (one instance only)" Icon-Name="border--none" id="miscdiagram_SJtZjVj4t_173dyT2PJOan1">
                    <mxCell style="shape=mxgraph.ibm2mondrian.base;shapeType=lg;shapeLayout=expanded;colorFamily=green;colorBackground=noColor:noColor;html=1;whiteSpace=wrap;metaEdit=1;strokeWidth=1;collapsible=0;recursiveResize=0;expand=0;fontFamily=IBM Plex Sans;fontColor=#000000;fontSize=14;image=;verticalAlign=top;align=left;spacing=0;spacingLeft=12;spacingRight=16;spacingTop=0;spacingBottom=0;container=1" parent="miscdiagram_SJtZjVj4t_163dyT2PJJx1B" vertex="1">
                        <mxGeometry x="16" y="48" width="816" height="528" as="geometry"/>
                    </mxCell>
                </UserObject>
                <UserObject placeholders="1" label="x86 Worker Node" Icon-Name="cloud-services" id="miscdiagram_SJtZjVj4t_183dyT2PJ8q5C">
                    <mxCell style="shape=mxgraph.ibm2mondrian.base;shapeType=lg;shapeLayout=expanded;colorFamily=blue;colorBackground=noColor:noColor;html=1;whiteSpace=wrap;metaEdit=1;strokeWidth=1;collapsible=0;recursiveResize=0;expand=0;fontFamily=IBM Plex Sans;fontColor=#000000;fontSize=14;image=;verticalAlign=top;align=left;spacing=0;spacingLeft=12;spacingRight=16;spacingTop=0;spacingBottom=0;container=1" parent="miscdiagram_SJtZjVj4t_173dyT2PJOan1" vertex="1">
                        <mxGeometry x="24" y="62" width="768" height="434" as="geometry"/>
                    </mxCell>
                </UserObject>
                <mxCell id="miscdiagram_SJtZjVj4t_193dyT2PJHf3o" value="" style="rounded=0;whiteSpace=wrap;html=1;" parent="miscdiagram_SJtZjVj4t_183dyT2PJ8q5C" vertex="1">
                    <mxGeometry x="192" y="16" width="184" height="384" as="geometry"/>
                </mxCell>
                <UserObject placeholders="1" label="Process Mining Operator" Icon-Name="cube" id="miscdiagram_SJtZjVj4t_203dyT2PJKGx4">
                    <mxCell style="shape=mxgraph.ibm2mondrian.base;shapeType=lg;shapeLayout=expanded;colorFamily=green;colorBackground=noColor:noColor;html=1;whiteSpace=wrap;metaEdit=1;strokeWidth=1;collapsible=0;recursiveResize=0;expand=0;fontFamily=IBM Plex Sans;fontColor=#000000;fontSize=14;image=;verticalAlign=middle;align=left;spacing=0;spacingLeft=12;spacingRight=16;spacingTop=0;spacingBottom=0;container=1" parent="miscdiagram_SJtZjVj4t_183dyT2PJ8q5C" vertex="1">
                        <mxGeometry x="24" y="62" width="152" height="68" as="geometry"/>
                    </mxCell>
                </UserObject>
                <UserObject placeholders="1" label="Process Discovery" Icon-Name="cube" _id="userobject_34RC2QpgTND" id="miscdiagram_SJtZjVj4t_213dyT2PJpJus">
                    <mxCell style="shape=mxgraph.ibm2mondrian.base;shapeType=lg;shapeLayout=expanded;colorFamily=green;colorBackground=noColor:noColor;html=1;whiteSpace=wrap;metaEdit=1;strokeWidth=1;collapsible=0;recursiveResize=0;expand=0;fontFamily=IBM Plex Sans;fontColor=#000000;fontSize=14;image=;verticalAlign=middle;align=left;spacing=0;spacingLeft=12;spacingRight=16;spacingTop=0;spacingBottom=0;container=1" parent="miscdiagram_SJtZjVj4t_183dyT2PJ8q5C" vertex="1">
                        <mxGeometry x="208" y="62" width="152" height="68" as="geometry"/>
                    </mxCell>
                </UserObject>
                <UserObject placeholders="1" label="BPA (Analytics)" Icon-Name="cube" _id="userobject_34RCzoeQQOp" id="miscdiagram_SJtZjVj4t_223dyT2PJzunV">
                    <mxCell style="shape=mxgraph.ibm2mondrian.base;shapeType=lg;shapeLayout=expanded;colorFamily=green;colorBackground=noColor:noColor;html=1;whiteSpace=wrap;metaEdit=1;strokeWidth=1;collapsible=0;recursiveResize=0;expand=0;fontFamily=IBM Plex Sans;fontColor=#000000;fontSize=14;image=;verticalAlign=middle;align=left;spacing=0;spacingLeft=12;spacingRight=16;spacingTop=0;spacingBottom=0;container=1" parent="miscdiagram_SJtZjVj4t_183dyT2PJ8q5C" vertex="1">
                        <mxGeometry x="208" y="142" width="152" height="68" as="geometry"/>
                    </mxCell>
                </UserObject>
                <UserObject placeholders="1" label="Dashboard" Icon-Name="cube" _id="userobject_34RCUQ8Kz9k" id="miscdiagram_SJtZjVj4t_233dyT2PJ0xON">
                    <mxCell style="shape=mxgraph.ibm2mondrian.base;shapeType=lg;shapeLayout=expanded;colorFamily=green;colorBackground=noColor:noColor;html=1;whiteSpace=wrap;metaEdit=1;strokeWidth=1;collapsible=0;recursiveResize=0;expand=0;fontFamily=IBM Plex Sans;fontColor=#000000;fontSize=14;image=;verticalAlign=middle;align=left;spacing=0;spacingLeft=12;spacingRight=16;spacingTop=0;spacingBottom=0;container=1" parent="miscdiagram_SJtZjVj4t_183dyT2PJ8q5C" vertex="1">
                        <mxGeometry x="208" y="226" width="152" height="68" as="geometry"/>
                    </mxCell>
                </UserObject>
                <UserObject placeholders="1" label="User/Group Administration" Icon-Name="cube" _id="userobject_34RD9xyVYJp" id="miscdiagram_SJtZjVj4t_243dyT2PJM1nf">
                    <mxCell style="shape=mxgraph.ibm2mondrian.base;shapeType=lg;shapeLayout=expanded;colorFamily=green;colorBackground=noColor:noColor;html=1;whiteSpace=wrap;metaEdit=1;strokeWidth=1;collapsible=0;recursiveResize=0;expand=0;fontFamily=IBM Plex Sans;fontColor=#000000;fontSize=14;image=;verticalAlign=middle;align=left;spacing=0;spacingLeft=12;spacingRight=16;spacingTop=0;spacingBottom=0;container=1" parent="miscdiagram_SJtZjVj4t_183dyT2PJ8q5C" vertex="1">
                        <mxGeometry x="208" y="306" width="152" height="68" as="geometry"/>
                    </mxCell>
                </UserObject>
                <mxCell id="miscdiagram_SJtZjVj4t_253dyT2PJo9GT" value="Process Mining" style="text;html=1;strokeColor=none;fillColor=none;align=center;verticalAlign=middle;whiteSpace=wrap;rounded=0;" parent="miscdiagram_SJtZjVj4t_183dyT2PJ8q5C" vertex="1">
                    <mxGeometry x="208" y="26" width="144" height="20" as="geometry"/>
                </mxCell>
                <mxCell id="miscdiagram_SJtZjVj4t_263dyT2PJ8bH3" value="" style="rounded=0;whiteSpace=wrap;html=1;" parent="miscdiagram_SJtZjVj4t_183dyT2PJ8q5C" vertex="1">
                    <mxGeometry x="386" y="18" width="184" height="384" as="geometry"/>
                </mxCell>
                <mxCell id="miscdiagram_SJtZjVj4t_273dyT2PJWNAH" value="Task Mining" style="text;html=1;strokeColor=none;fillColor=none;align=center;verticalAlign=middle;whiteSpace=wrap;rounded=0;" parent="miscdiagram_SJtZjVj4t_183dyT2PJ8q5C" vertex="1">
                    <mxGeometry x="400" y="26" width="152" height="20" as="geometry"/>
                </mxCell>
                <UserObject placeholders="1" label="Data Collector" Icon-Name="cube" _id="userobject_34REKvFn6u4" id="miscdiagram_SJtZjVj4t_283dyT2PJ6GkA">
                    <mxCell style="shape=mxgraph.ibm2mondrian.base;shapeType=lg;shapeLayout=expanded;colorFamily=green;colorBackground=noColor:noColor;html=1;whiteSpace=wrap;metaEdit=1;strokeWidth=1;collapsible=0;recursiveResize=0;expand=0;fontFamily=IBM Plex Sans;fontColor=#000000;fontSize=14;image=;verticalAlign=middle;align=left;spacing=0;spacingLeft=12;spacingRight=16;spacingTop=0;spacingBottom=0;container=1" parent="miscdiagram_SJtZjVj4t_183dyT2PJ8q5C" vertex="1">
                        <mxGeometry x="402" y="62" width="152" height="68" as="geometry"/>
                    </mxCell>
                </UserObject>
                <UserObject placeholders="1" label="Data Processor" Icon-Name="cube" _id="userobject_34REVV2qold" id="miscdiagram_SJtZjVj4t_293dyT2PJlDQ2">
                    <mxCell style="shape=mxgraph.ibm2mondrian.base;shapeType=lg;shapeLayout=expanded;colorFamily=green;colorBackground=noColor:noColor;html=1;whiteSpace=wrap;metaEdit=1;strokeWidth=1;collapsible=0;recursiveResize=0;expand=0;fontFamily=IBM Plex Sans;fontColor=#000000;fontSize=14;image=;verticalAlign=middle;align=left;spacing=0;spacingLeft=12;spacingRight=16;spacingTop=0;spacingBottom=0;container=1" parent="miscdiagram_SJtZjVj4t_183dyT2PJ8q5C" vertex="1">
                        <mxGeometry x="402" y="142" width="152" height="68" as="geometry"/>
                    </mxCell>
                </UserObject>
                <UserObject placeholders="1" label="Data Collector FIX THIS" Icon-Name="cube" _id="userobject_34REZYxfvTb" id="miscdiagram_SJtZjVj4t_303dyT2PJFBI8">
                    <mxCell style="shape=mxgraph.ibm2mondrian.base;shapeType=lg;shapeLayout=expanded;colorFamily=green;colorBackground=noColor:noColor;html=1;whiteSpace=wrap;metaEdit=1;strokeWidth=1;collapsible=0;recursiveResize=0;expand=0;fontFamily=IBM Plex Sans;fontColor=#000000;fontSize=14;image=;verticalAlign=middle;align=left;spacing=0;spacingLeft=12;spacingRight=16;spacingTop=0;spacingBottom=0;container=1" parent="miscdiagram_SJtZjVj4t_183dyT2PJ8q5C" vertex="1">
                        <mxGeometry x="402" y="226" width="152" height="68" as="geometry"/>
                    </mxCell>
                </UserObject>
                <UserObject placeholders="1" label="Miner" Icon-Name="cube" _id="userobject_34RF5m3SAZT" id="miscdiagram_SJtZjVj4t_313dyT2PJywuM">
                    <mxCell style="shape=mxgraph.ibm2mondrian.base;shapeType=lg;shapeLayout=expanded;colorFamily=green;colorBackground=noColor:noColor;html=1;whiteSpace=wrap;metaEdit=1;strokeWidth=1;collapsible=0;recursiveResize=0;expand=0;fontFamily=IBM Plex Sans;fontColor=#000000;fontSize=14;image=;verticalAlign=middle;align=left;spacing=0;spacingLeft=12;spacingRight=16;spacingTop=0;spacingBottom=0;container=1" parent="miscdiagram_SJtZjVj4t_183dyT2PJ8q5C" vertex="1">
                        <mxGeometry x="400" y="306" width="152" height="68" as="geometry"/>
                    </mxCell>
                </UserObject>
                <UserObject placeholders="1" label="Common Services Operator" Icon-Name="cube" _id="userobject_34RH08JOPxN" id="miscdiagram_SJtZjVj4t_323dyT2PJiG3U">
                    <mxCell style="shape=mxgraph.ibm2mondrian.base;shapeType=lg;shapeLayout=expanded;colorFamily=green;colorBackground=noColor:noColor;html=1;whiteSpace=wrap;metaEdit=1;strokeWidth=1;collapsible=0;recursiveResize=0;expand=0;fontFamily=IBM Plex Sans;fontColor=#000000;fontSize=14;image=;verticalAlign=middle;align=left;spacing=0;spacingLeft=12;spacingRight=16;spacingTop=0;spacingBottom=0;container=1" parent="miscdiagram_SJtZjVj4t_183dyT2PJ8q5C" vertex="1">
                        <mxGeometry x="24" y="142" width="152" height="68" as="geometry"/>
                    </mxCell>
                </UserObject>
                <UserObject placeholders="1" label="Automation Core Operator" Icon-Name="cube" _id="userobject_34RH5M2TCiE" id="miscdiagram_SJtZjVj4t_333dyT2PJgn8V">
                    <mxCell style="shape=mxgraph.ibm2mondrian.base;shapeType=lg;shapeLayout=expanded;colorFamily=green;colorBackground=noColor:noColor;html=1;whiteSpace=wrap;metaEdit=1;strokeWidth=1;collapsible=0;recursiveResize=0;expand=0;fontFamily=IBM Plex Sans;fontColor=#000000;fontSize=14;image=;verticalAlign=middle;align=left;spacing=0;spacingLeft=12;spacingRight=16;spacingTop=0;spacingBottom=0;container=1" parent="miscdiagram_SJtZjVj4t_183dyT2PJ8q5C" vertex="1">
                        <mxGeometry x="24" y="226" width="152" height="68" as="geometry"/>
                    </mxCell>
                </UserObject>
                <UserObject placeholders="1" label="DB2 Operator" Icon-Name="cube" _id="userobject_34RHfCjIIhX" id="miscdiagram_SJtZjVj4t_343dyT2PJK4li">
                    <mxCell style="shape=mxgraph.ibm2mondrian.base;shapeType=lg;shapeLayout=expanded;colorFamily=green;colorBackground=noColor:noColor;html=1;whiteSpace=wrap;metaEdit=1;strokeWidth=1;collapsible=0;recursiveResize=0;expand=0;fontFamily=IBM Plex Sans;fontColor=#000000;fontSize=14;image=;verticalAlign=middle;align=left;spacing=0;spacingLeft=12;spacingRight=16;spacingTop=0;spacingBottom=0;container=1" parent="miscdiagram_SJtZjVj4t_183dyT2PJ8q5C" vertex="1">
                        <mxGeometry x="24" y="306" width="152" height="68" as="geometry"/>
                    </mxCell>
                </UserObject>
                <UserObject placeholders="1" label="BAI" Icon-Name="cube" _id="userobject_34RHXnpv8lv" id="miscdiagram_SJtZjVj4t_353dyT2PJA1Qj">
                    <mxCell style="shape=mxgraph.ibm2mondrian.base;shapeType=lg;shapeLayout=expanded;colorFamily=green;colorBackground=noColor:noColor;html=1;whiteSpace=wrap;metaEdit=1;strokeWidth=1;collapsible=0;recursiveResize=0;expand=0;fontFamily=IBM Plex Sans;fontColor=#000000;fontSize=14;image=;verticalAlign=middle;align=left;spacing=0;spacingLeft=12;spacingRight=16;spacingTop=0;spacingBottom=0;container=1" parent="miscdiagram_SJtZjVj4t_183dyT2PJ8q5C" vertex="1">
                        <mxGeometry x="592" y="62" width="152" height="68" as="geometry"/>
                    </mxCell>
                </UserObject>
                <UserObject placeholders="1" label="Mongo DB" Icon-Name="cube" _id="userobject_34RIUNTgvTt" id="miscdiagram_SJtZjVj4t_363dyT2PJTaYS">
                    <mxCell style="shape=mxgraph.ibm2mondrian.base;shapeType=lg;shapeLayout=expanded;colorFamily=green;colorBackground=noColor:noColor;html=1;whiteSpace=wrap;metaEdit=1;strokeWidth=1;collapsible=0;recursiveResize=0;expand=0;fontFamily=IBM Plex Sans;fontColor=#000000;fontSize=14;image=;verticalAlign=middle;align=left;spacing=0;spacingLeft=12;spacingRight=16;spacingTop=0;spacingBottom=0;container=1" parent="miscdiagram_SJtZjVj4t_183dyT2PJ8q5C" vertex="1">
                        <mxGeometry x="592" y="151" width="152" height="68" as="geometry"/>
                    </mxCell>
                </UserObject>
                <UserObject placeholders="1" label="DB2 or MySQL" Icon-Name="cube" _id="userobject_34RJ6gQMs2x" id="miscdiagram_SJtZjVj4t_373dyT2PJZq71">
                    <mxCell style="shape=mxgraph.ibm2mondrian.base;shapeType=lg;shapeLayout=expanded;colorFamily=green;colorBackground=noColor:noColor;html=1;whiteSpace=wrap;metaEdit=1;strokeWidth=1;collapsible=0;recursiveResize=0;expand=0;fontFamily=IBM Plex Sans;fontColor=#000000;fontSize=14;image=;verticalAlign=middle;align=left;spacing=0;spacingLeft=12;spacingRight=16;spacingTop=0;spacingBottom=0;container=1" parent="miscdiagram_SJtZjVj4t_183dyT2PJ8q5C" vertex="1">
                        <mxGeometry x="592" y="238" width="152" height="68" as="geometry"/>
                    </mxCell>
                </UserObject>
            </root>
        </mxGraphModel>
    </diagram>
</mxfile>